<?xml version="1.0" standalone="no"?>
<!DOCTYPE svg PUBLIC "-//W3C//DTD SVG 20010904//EN"
 "http://www.w3.org/TR/2001/REC-SVG-20010904/DTD/svg10.dtd">
<svg version="1.0" xmlns="http://www.w3.org/2000/svg"
 width="500.000000pt" height="500.000000pt" viewBox="0 0 500.000000 500.000000"
 preserveAspectRatio="xMidYMid meet">

<g transform="translate(0.000000,500.000000) scale(0.100000,-0.100000)"
fill="#000000" stroke="none">
<path d="M2665 3806 c-159 -34 -252 -61 -410 -123 -248 -96 -366 -164 -475
-273 -225 -225 -351 -513 -367 -835 -5 -117 5 -255 23 -317 5 -16 22 -18 176
-18 158 0 170 1 163 18 -23 51 -56 182 -65 254 -48 386 60 745 284 945 179
159 423 234 711 220 255 -13 415 -72 415 -154 l0 -23 53 26 c101 52 222 158
215 190 -4 25 -61 62 -122 79 -143 41 -431 46 -601 11z"/>
<path d="M3156 2750 c-187 -30 -528 -156 -653 -241 -66 -45 -147 -123 -197
-189 -66 -85 -67 -80 23 -80 l80 0 22 46 c32 63 106 152 164 197 63 48 195
113 260 127 149 33 370 31 491 -5 66 -19 118 -55 122 -83 3 -18 8 -22 25 -16
37 12 120 70 162 113 l40 42 -32 29 c-21 19 -54 33 -104 45 -87 19 -319 28
-403 15z"/>
<path d="M565 2160 c-19 -8 -8 -10 60 -10 3 0 5 3 5 8 1 11 -42 12 -65 2z"/>
<path d="M700 2168 c0 -2 -2 -49 -3 -106 -2 -90 0 -102 15 -102 9 0 20 5 23
10 3 6 1 10 -4 10 -6 0 -11 13 -11 29 0 53 8 61 62 61 l50 0 -4 -55 c-2 -46 0
-55 14 -55 20 0 33 17 16 22 -8 3 -9 28 -2 96 8 80 8 92 -6 92 -19 0 -51 -20
-32 -20 7 0 12 -14 12 -36 l0 -35 -51 3 -51 3 4 43 c3 35 0 42 -14 42 -10 0
-18 -1 -18 -2z"/>
<path d="M1155 2162 c-5 -4 -10 -51 -10 -105 0 -84 2 -97 17 -97 19 0 33 16
19 22 -4 1 -6 40 -3 86 4 70 7 82 23 82 29 0 51 -29 44 -58 -5 -22 -4 -24 9
-13 23 19 20 57 -6 75 -23 17 -76 21 -93 8z"/>
<path d="M1344 2158 c-3 -5 11 -8 31 -8 l37 0 -4 -95 c-3 -84 -1 -95 14 -95
20 0 33 17 17 22 -7 2 -9 29 -4 86 l8 82 33 0 c18 0 36 4 39 10 4 6 -26 9 -80
7 -48 -1 -89 -5 -91 -9z"/>
<path d="M1615 2161 l-50 -6 0 -98 0 -97 45 2 c38 1 40 2 12 5 -29 4 -33 7
-28 26 3 12 6 32 6 45 0 17 6 22 24 22 14 0 28 5 31 10 4 6 -7 10 -24 10 -29
0 -31 3 -31 35 0 33 2 35 34 35 19 0 38 5 41 10 3 6 3 9 -2 8 -4 -1 -30 -4
-58 -7z"/>
<path d="M1740 2168 c0 -2 -2 -49 -3 -106 -2 -90 0 -102 15 -102 9 0 20 5 23
10 3 6 1 10 -4 10 -12 0 -15 109 -5 148 7 24 33 29 52 10 19 -19 14 -56 -10
-72 l-23 -16 47 -46 c30 -31 52 -45 62 -41 12 5 5 16 -31 50 l-46 44 21 21
c44 44 12 92 -60 92 -21 0 -38 -1 -38 -2z"/>
<path d="M2125 2161 c-16 -6 -10 -9 25 -13 50 -5 69 0 49 13 -17 11 -47 10
-74 0z"/>
<path d="M2323 2160 c-31 -12 -29 -18 3 -12 57 11 102 -46 90 -113 -17 -91
-146 -63 -146 33 0 21 5 43 12 50 6 6 9 14 6 18 -13 12 -43 -51 -43 -89 0 -30
7 -44 28 -63 34 -29 71 -30 115 -4 73 44 76 147 6 176 -38 16 -41 16 -71 4z"/>
<path d="M2647 2164 c-3 -3 -1 -14 5 -23 7 -11 8 -39 3 -76 l-7 -58 -48 48
c-27 27 -54 61 -61 77 -19 46 -29 32 -29 -41 0 -38 -3 -83 -6 -100 -5 -26 -3
-31 12 -31 11 0 15 4 9 8 -6 4 -8 33 -5 68 l5 61 62 -68 c43 -47 65 -65 70
-56 13 20 20 197 7 197 -6 0 -13 -3 -17 -6z"/>
<path d="M2805 2161 c-18 -7 -17 -8 7 -13 32 -6 58 6 33 16 -9 3 -17 6 -18 5
-1 0 -11 -4 -22 -8z"/>
<path d="M2894 2158 c-3 -5 11 -8 31 -8 l37 0 -4 -95 c-3 -84 -1 -95 14 -95
20 0 33 17 17 22 -7 2 -9 29 -4 86 l8 82 33 0 c18 0 36 4 39 10 4 6 -26 9 -80
7 -48 -1 -89 -5 -91 -9z"/>
<path d="M3120 2168 c0 -2 -2 -49 -3 -106 -2 -90 0 -102 15 -102 9 0 20 5 23
10 3 6 1 10 -4 10 -12 0 -15 109 -5 148 7 24 33 29 52 10 19 -19 14 -56 -10
-72 l-23 -16 47 -46 c30 -31 52 -45 62 -41 12 5 5 16 -31 50 l-46 44 21 21
c44 44 12 92 -60 92 -21 0 -38 -1 -38 -2z"/>
<path d="M3655 2161 c-16 -6 -10 -9 25 -13 49 -5 64 -2 55 13 -7 11 -52 11
-80 0z"/>
<path d="M3774 2158 c-3 -5 11 -8 31 -8 l37 0 -4 -95 c-3 -84 -1 -95 14 -95 9
0 20 5 23 10 3 6 1 10 -5 10 -7 0 -10 27 -8 83 l3 82 35 3 c19 2 39 8 45 13 6
6 -23 8 -79 7 -48 -2 -90 -6 -92 -10z"/>
<path d="M3990 2160 c-11 -7 -12 -10 -2 -10 11 0 13 -20 10 -95 -2 -79 -1 -95
12 -95 12 0 14 15 12 91 -2 60 1 95 8 105 10 11 9 14 -6 14 -11 0 -26 -5 -34
-10z"/>
<path d="M4175 2160 c-18 -8 -17 -9 7 -9 15 -1 39 -11 54 -24 21 -18 27 -32
27 -65 0 -53 -24 -82 -67 -82 -73 1 -110 89 -63 150 6 9 0 3 -15 -12 -32 -32
-36 -73 -13 -117 44 -86 183 -28 185 76 0 57 -65 104 -115 83z"/>
<path d="M4357 2140 c-11 -51 -8 -180 3 -180 6 0 9 3 9 8 -1 4 -1 35 0 69 l1
62 65 -69 c74 -79 73 -80 84 57 6 70 4 83 -8 81 -11 -2 -14 -20 -12 -83 l2
-80 -51 50 c-28 28 -60 65 -69 84 l-18 34 -6 -33z"/>
<path d="M996 2152 c-2 -4 -19 -43 -36 -87 -18 -44 -36 -86 -42 -92 -8 -10 -6
-13 6 -13 9 0 15 3 14 8 -5 19 16 54 39 63 41 15 52 11 59 -27 7 -38 28 -54
47 -35 8 8 8 11 -1 11 -9 0 -20 30 -58 163 -6 18 -19 23 -28 9z m14 -56 c0 -8
3 -21 6 -30 5 -12 0 -16 -19 -16 -24 0 -25 2 -16 30 11 31 29 41 29 16z"/>
<path d="M3330 2077 c3 -50 11 -91 19 -101 15 -18 68 -21 91 -5 12 8 9 9 -11
5 -15 -3 -34 1 -48 10 -21 15 -22 23 -19 95 3 73 2 79 -17 79 -19 0 -20 -5
-15 -83z"/>
<path d="M3468 2060 c3 -86 6 -100 20 -100 15 0 17 12 14 100 -3 86 -6 100
-20 100 -15 0 -17 -12 -14 -100z"/>
<path d="M496 2119 c-38 -45 -36 -99 5 -133 32 -27 81 -34 109 -16 11 7 5 10
-25 10 -47 1 -70 16 -85 55 -13 33 2 90 28 105 9 5 12 10 5 10 -6 0 -23 -14
-37 -31z"/>
<path d="M2068 2133 c-47 -54 -50 -103 -9 -144 31 -30 80 -39 111 -19 11 7 6
10 -21 10 -57 0 -89 31 -89 86 0 31 6 50 20 64 11 11 16 20 12 20 -5 0 -16 -8
-24 -17z"/>
<path d="M2757 2132 c-27 -29 -20 -49 25 -79 24 -16 44 -36 46 -45 5 -25 -35
-43 -64 -29 -16 7 -25 7 -30 0 -17 -28 47 -29 84 -2 42 31 40 58 -8 88 -47 29
-58 49 -40 70 18 21 6 19 -13 -3z"/>
<path d="M3603 2135 c-27 -19 -46 -75 -37 -109 13 -52 90 -84 134 -56 11 7 5
10 -23 10 -76 0 -114 83 -66 144 24 30 22 32 -8 11z"/>
<path d="M1212 2061 c-6 -4 6 -25 32 -55 32 -37 47 -48 60 -43 17 7 16 9 -7
27 -14 11 -36 33 -50 49 -13 16 -29 26 -35 22z"/>
<path d="M1690 1804 c64 -64 184 -151 268 -193 l42 -21 0 102 c0 57 3 120 6
141 l7 37 -194 0 -193 0 64 -66z"/>
<path d="M2104 1813 c-4 -31 -4 -109 -1 -172 10 -214 94 -395 246 -532 191
-173 521 -271 752 -225 143 30 352 127 459 216 l35 29 -65 -20 c-127 -39 -304
-61 -445 -56 -146 6 -234 26 -345 82 -92 45 -144 82 -207 147 -123 128 -184
278 -199 491 l-7 97 -108 0 -108 0 -7 -57z"/>
<path d="M3215 1784 c-178 -66 -509 -101 -699 -74 -38 6 -71 8 -74 5 -9 -8 16
-118 40 -180 l21 -55 48 0 c152 0 401 95 604 231 131 88 145 104 60 73z"/>
</g>
</svg>
